<svg width="100%" viewBox="0 0 680 460" role="img" xmlns="http://www.w3.org/2000/svg">
  <title>Abstract soil bacteria with grass surface</title>
  <desc>Soft pastel illustration of soil bacteria beneath a green grass and root surface layer, signed Molly Hydorn PhD</desc>
  <style>
    @keyframes drift1 { 0%,100%{transform:translate(0,0)} 50%{transform:translate(3px,-5px)} }
    @keyframes drift2 { 0%,100%{transform:translate(0,0)} 50%{transform:translate(-4px,4px)} }
    @keyframes drift3 { 0%,100%{transform:translate(0,0)} 50%{transform:translate(2px,6px)} }
    .d1 { animation: drift1 7s ease-in-out infinite; }
    .d2 { animation: drift2 9s ease-in-out infinite; }
    .d3 { animation: drift3 11s ease-in-out infinite; }
  </style>

  <!-- Sky -->
  <rect x="0" y="0" width="680" height="105" fill="#dff0e0"/>
  <rect x="0" y="85" width="680" height="30" fill="#c8e6c0" opacity="0.5"/>

  <!-- Grass blades -->
  <g fill="#8abf7a" opacity="0.9">
    <ellipse cx="22" cy="100" rx="3" ry="16"/><ellipse cx="33" cy="96" rx="2.5" ry="20"/>
    <ellipse cx="44" cy="101" rx="3" ry="14"/><ellipse cx="62" cy="99" rx="3" ry="18"/>
    <ellipse cx="75" cy="94" rx="2.5" ry="22"/><ellipse cx="88" cy="101" rx="3" ry="15"/>
    <ellipse cx="110" cy="98" rx="3" ry="19"/><ellipse cx="124" cy="93" rx="2.5" ry="23"/>
    <ellipse cx="138" cy="100" rx="3" ry="16"/><ellipse cx="162" cy="97" rx="3" ry="20"/>
    <ellipse cx="177" cy="92" rx="2.5" ry="24"/><ellipse cx="192" cy="100" rx="3" ry="15"/>
    <ellipse cx="218" cy="98" rx="3" ry="19"/><ellipse cx="232" cy="93" rx="2.5" ry="23"/>
    <ellipse cx="247" cy="101" rx="3" ry="15"/><ellipse cx="272" cy="97" rx="3" ry="20"/>
    <ellipse cx="287" cy="91" rx="2.5" ry="25"/><ellipse cx="302" cy="100" rx="3" ry="16"/>
    <ellipse cx="326" cy="98" rx="3" ry="18"/><ellipse cx="340" cy="93" rx="2.5" ry="22"/>
    <ellipse cx="355" cy="101" rx="3" ry="14"/><ellipse cx="378" cy="97" rx="3" ry="20"/>
    <ellipse cx="393" cy="92" rx="2.5" ry="24"/><ellipse cx="408" cy="100" rx="3" ry="16"/>
    <ellipse cx="432" cy="98" rx="3" ry="19"/><ellipse cx="447" cy="93" rx="2.5" ry="23"/>
    <ellipse cx="462" cy="101" rx="3" ry="15"/><ellipse cx="486" cy="97" rx="3" ry="20"/>
    <ellipse cx="501" cy="91" rx="2.5" ry="26"/><ellipse cx="516" cy="100" rx="3" ry="15"/>
    <ellipse cx="540" cy="98" rx="3" ry="18"/><ellipse cx="555" cy="93" rx="2.5" ry="22"/>
    <ellipse cx="570" cy="101" rx="3" ry="14"/><ellipse cx="594" cy="97" rx="3" ry="20"/>
    <ellipse cx="609" cy="92" rx="2.5" ry="24"/><ellipse cx="624" cy="100" rx="3" ry="16"/>
    <ellipse cx="648" cy="98" rx="3" ry="19"/><ellipse cx="663" cy="93" rx="2.5" ry="23"/>
    <ellipse cx="678" cy="101" rx="3" ry="15"/>
  </g>
  <g fill="#6aab58" opacity="0.7">
    <ellipse cx="15" cy="104" rx="3" ry="12"/><ellipse cx="50" cy="102" rx="2.5" ry="15"/>
    <ellipse cx="82" cy="105" rx="3" ry="11"/><ellipse cx="130" cy="103" rx="2.5" ry="14"/>
    <ellipse cx="185" cy="104" rx="3" ry="12"/><ellipse cx="238" cy="102" rx="2.5" ry="15"/>
    <ellipse cx="295" cy="105" rx="3" ry="11"/><ellipse cx="350" cy="103" rx="2.5" ry="13"/>
    <ellipse cx="400" cy="104" rx="3" ry="12"/><ellipse cx="455" cy="102" rx="2.5" ry="15"/>
    <ellipse cx="508" cy="105" rx="3" ry="11"/><ellipse cx="562" cy="103" rx="2.5" ry="14"/>
    <ellipse cx="615" cy="104" rx="3" ry="12"/><ellipse cx="660" cy="102" rx="2.5" ry="14"/>
  </g>

  <!-- Soil surface -->
  <path d="M0 108 Q170 114 340 110 Q510 106 680 112 L680 460 L0 460 Z" fill="#f0e4d0"/>
  <ellipse cx="200" cy="320" rx="300" ry="200" fill="#ede0cc" opacity="0.5"/>
  <ellipse cx="520" cy="180" rx="220" ry="150" fill="#f4ead8" opacity="0.4"/>
  <path d="M0 108 Q170 114 340 110 Q510 106 680 112" stroke="#c8b49a" stroke-width="1.5" fill="none" opacity="0.6"/>

  <!-- Roots -->
  <g stroke="#b89a6a" stroke-width="1.5" fill="none" opacity="0.5">
    <path d="M120 108 Q116 140 108 175 Q98 210 88 245 Q78 275 68 300"/>
    <path d="M120 120 Q100 135 78 148 Q58 160 38 168"/>
    <path d="M118 155 Q96 165 72 174 Q50 182 28 188"/>
    <path d="M115 190 Q92 200 66 210 Q42 219 18 224"/>
    <path d="M340 108 Q336 145 326 182 Q314 220 298 258 Q282 290 265 318"/>
    <path d="M340 122 Q316 138 290 152 Q266 164 240 173"/>
    <path d="M338 160 Q312 172 282 183 Q255 193 228 200"/>
    <path d="M335 200 Q308 212 276 224 Q248 234 218 241"/>
    <path d="M342 240 Q368 255 396 268 Q422 279 448 286"/>
    <path d="M560 108 Q564 143 572 178 Q582 215 596 252"/>
    <path d="M558 125 Q582 140 608 154 Q632 166 655 174"/>
    <path d="M562 163 Q588 175 616 186 Q642 195 666 202"/>
    <path d="M565 200 Q592 212 620 224 Q646 234 670 241"/>
  </g>

  <!-- Spirochetes -->
  <g stroke="#c4b8e8" stroke-width="2.2" fill="none" opacity="0.65">
    <path d="M30 155 Q45 143 60 155 Q75 167 90 155 Q105 143 120 155 Q135 167 150 155"/>
    <path d="M500 375 Q515 363 530 375 Q545 387 560 375 Q575 363 590 375 Q605 387 620 375"/>
    <path d="M60 320 Q72 310 84 320 Q96 330 108 320 Q120 310 132 320"/>
    <path d="M560 200 Q572 190 584 200 Q596 210 608 200 Q620 190 632 200"/>
    <path d="M220 405 Q232 395 244 405 Q256 415 268 405 Q280 395 292 405"/>
    <path d="M390 135 Q402 125 414 135 Q426 145 438 135 Q450 125 462 135"/>
  </g>
  <g fill="#c4b8e8" opacity="0.6">
    <circle cx="30" cy="155" r="3.5"/><circle cx="150" cy="155" r="3.5"/>
    <circle cx="500" cy="375" r="3.5"/><circle cx="620" cy="375" r="3.5"/>
    <circle cx="60" cy="320" r="3"/><circle cx="132" cy="320" r="3"/>
    <circle cx="560" cy="200" r="3"/><circle cx="632" cy="200" r="3"/>
    <circle cx="220" cy="405" r="3"/><circle cx="292" cy="405" r="3"/>
    <circle cx="390" cy="135" r="3"/><circle cx="462" cy="135" r="3"/>
  </g>

  <!-- Bacilli -->
  <g fill="#f2c4c4" opacity="0.82">
    <rect x="70" y="165" width="22" height="8" rx="4" transform="rotate(-28 70 165)"/>
    <rect x="180" y="135" width="24" height="8" rx="4" transform="rotate(12 180 135)"/>
    <rect x="310" y="155" width="20" height="7" rx="3.5" transform="rotate(-40 310 155)"/>
    <rect x="430" y="145" width="22" height="8" rx="4" transform="rotate(18 430 145)"/>
    <rect x="565" y="170" width="20" height="7" rx="3.5" transform="rotate(-20 565 170)"/>
    <rect x="610" y="260" width="24" height="8" rx="4" transform="rotate(35 610 260)"/>
    <rect x="45" y="270" width="22" height="7" rx="3.5" transform="rotate(-15 45 270)"/>
    <rect x="140" y="355" width="20" height="8" rx="4" transform="rotate(22 140 355)"/>
    <rect x="370" y="360" width="22" height="7" rx="3.5" transform="rotate(-33 370 360)"/>
    <rect x="540" y="320" width="20" height="8" rx="4" transform="rotate(14 540 320)"/>
    <rect x="240" y="215" width="24" height="8" rx="4" transform="rotate(8 240 215)"/>
  </g>
  <g fill="#b8d8c0" opacity="0.82">
    <rect x="100" y="225" width="22" height="8" rx="4" transform="rotate(20 100 225)"/>
    <rect x="250" y="148" width="20" height="7" rx="3.5" transform="rotate(-18 250 148)"/>
    <rect x="480" y="195" width="24" height="8" rx="4" transform="rotate(30 480 195)"/>
    <rect x="580" y="132" width="20" height="7" rx="3.5" transform="rotate(-12 580 132)"/>
    <rect x="200" y="388" width="20" height="7" rx="3.5" transform="rotate(-28 200 388)"/>
    <rect x="330" y="300" width="20" height="7" rx="3.5" transform="rotate(-15 330 300)"/>
    <rect x="155" y="295" width="24" height="8" rx="4" transform="rotate(35 155 295)"/>
    <rect x="640" y="210" width="20" height="7" rx="3.5" transform="rotate(-22 640 210)"/>
  </g>
  <g fill="#b8c4e8" opacity="0.78">
    <rect x="340" y="230" width="22" height="8" rx="4" transform="rotate(-22 340 230)"/>
    <rect x="490" y="265" width="20" height="7" rx="3.5" transform="rotate(16 490 265)"/>
    <rect x="55" y="205" width="20" height="7" rx="3.5" transform="rotate(28 55 205)"/>
  </g>
  <g fill="#f0d0b0" opacity="0.82">
    <rect x="280" y="372" width="22" height="8" rx="4" transform="rotate(18 280 372)"/>
    <rect x="420" y="340" width="20" height="7" rx="3.5" transform="rotate(-24 420 340)"/>
    <rect x="170" y="175" width="22" height="8" rx="4" transform="rotate(32 170 175)"/>
    <rect x="35" y="232" width="22" height="8" rx="4" transform="rotate(-8 35 232)"/>
  </g>

  <!-- Cocci clusters -->
  <g class="d1" fill="#f0b8c0" opacity="0.82">
    <circle cx="130" cy="255" r="9"/><circle cx="146" cy="248" r="8"/>
    <circle cx="140" cy="267" r="8.5"/><circle cx="120" cy="265" r="7.5"/>
    <circle cx="152" cy="262" r="7"/><circle cx="127" cy="248" r="7"/>
  </g>
  <g class="d2" fill="#c8bce8" opacity="0.78">
    <circle cx="545" cy="230" r="9.5"/><circle cx="562" cy="223" r="8.5"/>
    <circle cx="556" cy="243" r="8"/><circle cx="535" cy="240" r="7.5"/>
    <circle cx="568" cy="237" r="7"/><circle cx="541" cy="220" r="7.5"/>
  </g>
  <g class="d3" fill="#a8d4b8" opacity="0.78">
    <circle cx="170" cy="390" r="9"/><circle cx="186" cy="383" r="8"/>
    <circle cx="180" cy="402" r="8.5"/><circle cx="160" cy="399" r="7.5"/>
    <circle cx="192" cy="396" r="7"/><circle cx="165" cy="382" r="7"/>
  </g>
  <g class="d1" fill="#f4cca8" opacity="0.82">
    <circle cx="490" cy="395" r="9"/><circle cx="506" cy="388" r="8.5"/>
    <circle cx="500" cy="407" r="8"/><circle cx="480" cy="404" r="7.5"/>
    <circle cx="512" cy="401" r="7"/><circle cx="487" cy="387" r="7.5"/>
  </g>
  <g class="d2" fill="#d4c0e8" opacity="0.72">
    <circle cx="340" cy="265" r="10"/><circle cx="358" cy="257" r="9"/>
    <circle cx="352" cy="277" r="9.5"/><circle cx="328" cy="275" r="8.5"/>
    <circle cx="364" cy="271" r="8"/><circle cx="334" cy="255" r="8"/>
    <circle cx="350" cy="289" r="7.5"/>
  </g>
  <g class="d3" fill="#b0ddd0" opacity="0.75">
    <circle cx="335" cy="168" r="8"/><circle cx="350" cy="162" r="7.5"/>
    <circle cx="345" cy="179" r="7"/><circle cx="324" cy="177" r="7"/>
    <circle cx="356" cy="174" r="6.5"/><circle cx="330" cy="160" r="6.5"/>
  </g>
  <g class="d1" fill="#f0c8c0" opacity="0.75">
    <circle cx="58" cy="358" r="7.5"/><circle cx="71" cy="352" r="7"/>
    <circle cx="66" cy="368" r="7"/><circle cx="49" cy="366" r="6.5"/>
    <circle cx="76" cy="363" r="6"/>
  </g>
  <g class="d2" fill="#b4c8f0" opacity="0.72">
    <circle cx="618" cy="340" r="8"/><circle cx="633" cy="334" r="7.5"/>
    <circle cx="628" cy="352" r="7"/><circle cx="608" cy="350" r="7"/>
    <circle cx="638" cy="347" r="6.5"/>
  </g>

  <!-- Binary fission lines -->
  <g stroke="#fff" stroke-width="1" opacity="0.55">
    <line x1="130" y1="250" x2="130" y2="260"/>
    <line x1="340" y1="260" x2="340" y2="270"/>
    <line x1="490" y1="390" x2="490" y2="400"/>
  </g>

  <!-- Flagella -->
  <g stroke="#d4b8d8" stroke-width="1.2" fill="none" opacity="0.5">
    <path d="M138 247 Q155 237 165 225 Q175 213 190 217"/>
    <path d="M120 263 Q104 273 94 287"/>
    <path d="M364 255 Q380 243 392 233 Q404 223 415 227"/>
    <path d="M535 238 Q520 247 510 259"/>
    <path d="M562 221 Q575 210 585 200"/>
  </g>

  <!-- Scattered single cocci -->
  <g opacity="0.6">
    <circle cx="215" cy="148" r="5" fill="#f2c0c8"/>
    <circle cx="405" cy="182" r="4.5" fill="#b8d8c0"/>
    <circle cx="298" cy="198" r="5" fill="#c8bce8"/>
    <circle cx="460" cy="148" r="4.5" fill="#f4cca8"/>
    <circle cx="88" cy="315" r="5" fill="#b4c8f0"/>
    <circle cx="575" cy="290" r="4.5" fill="#f0c8c0"/>
    <circle cx="28" cy="175" r="4" fill="#f2c0c8"/>
    <circle cx="185" cy="335" r="4.5" fill="#f4cca8"/>
    <circle cx="430" cy="298" r="4.5" fill="#f2c0c8"/>
  </g>

  <!-- Name signature -->
  <text x="648" y="432" text-anchor="end" font-family="Georgia, serif" font-size="15" font-style="italic" fill="#8a7060" opacity="0.85">Molly Hydorn, PhD</text>
</svg>
